<svg xmlns="http://www.w3.org/2000/svg" xmlns:xlink="http://www.w3.org/1999/xlink" viewBox="0 0 48 48" id="Home">
  <defs>
    <linearGradient xlink:href="#a" id="b" x1="1073.403" x2="1097.116" y1="516.451" y2="544.308" gradientTransform="translate(-1761.24 443.344)scale(1.53785)" gradientUnits="userSpaceOnUse"></linearGradient>
    <linearGradient id="a">
      <stop offset="0" stop-color="#243635" class="stopColor16ff6a svgShape"></stop>
      <stop offset="1" stop-color="#5e6c6b" class="stopColor0090a5 svgShape"></stop>
    </linearGradient>
  </defs>
  <g transform="translate(117.368 -1236.363)" fill="#001514" class="color000000 svgShape">
    <rect width="48" height="48" x="-117.368" y="1236.363" fill="url(#b)" rx="10.144" ry="10.144"></rect>
    <path fill="#e0e3e3" fill-rule="evenodd" d="M-93.366 1246.363a.5.5 0 0 0-.363.155l-3.326 3.47a.5.5 0 0 0-.139.33l-.047 1.44a.5.5 0 0 0 .635.498l1.12-.316-1.065 2.455-.1-1.069a.5.5 0 0 0-.677-.42l-.66.256-.005-.95a.5.5 0 0 0-.861-.345l-6.375 6.65a.5.5 0 0 0 .361.846h1.5v13.5a.5.5 0 0 0 .5.5h19a.5.5 0 0 0 .5-.5v-13.5h1.5a.5.5 0 0 0 .362-.845l-1.862-1.942a.5.5 0 0 0 0-.014v-5.699a.5.5 0 0 0-.5-.5h-2a.5.5 0 0 0-.5.5v2.582l-6.638-6.928a.5.5 0 0 0-.36-.154zm-.002 1.223 10.329 10.777h-20.657l4.707-4.91.002.44a.5.5 0 0 0 .68.464l.72-.279.221 2.352a.5.5 0 0 0 .957.152l2.258-5.209a.5.5 0 0 0-.595-.68l-1.473.414.017-.566 2.834-2.955zm8 3.777h1v4.168l-1.011-1.054a.5.5 0 0 0 .011-.114v-3zm-17 8h18v13h-6v-8.5a.5.5 0 0 0-.5-.5h-5a.5.5 0 0 0-.5.5v8.5h-6v-13zm7 5h4v8h-4v-8z" color="#000" font-family="sans-serif" font-weight="400" overflow="visible" style="line-height:normal;text-indent:0;text-align:start;text-decoration-line:none;text-decoration-style:solid;text-decoration-color:#000;text-transform:none;block-progression:tb;isolation:auto;mix-blend-mode:normal" class="colorffffff svgShape"></path>
  </g>
</svg>
