<svg width="156" height="40" viewBox="0 0 156 40" fill="none" xmlns="http://www.w3.org/2000/svg">
<g clip-path="url(#clip0_10_34)">
<path d="M42.1486 28.5954L65.4232 28.5953M42.1486 28.5954L42.1486 35.8686M42.1486 28.5954L39.2392 28.5954C38.4359 28.5953 37.7846 29.2466 37.7846 30.05L37.7846 34.414C37.7845 35.2174 38.4358 35.8687 39.2393 35.8686L42.1486 35.8686M65.4232 28.5953L65.4232 35.8687M65.4232 28.5953L71.2418 32.232L65.4232 35.8687M42.1486 35.8686L65.4232 35.8687" stroke="black" stroke-width="0.955556" stroke-linecap="round" stroke-linejoin="round"/>
<path d="M41.2861 26.2445C40.9385 26.2445 40.7647 26.0224 40.7647 25.5782C40.7647 25.1533 40.9385 24.6126 41.2861 23.956L46.8771 15.9027C48.5958 13.4308 49.8705 11.403 50.7009 9.81937C51.5313 8.23576 51.9465 7.11565 51.9465 6.45903C51.9465 6.15003 51.8307 5.91829 51.5989 5.76379C51.3672 5.60929 51.0968 5.50307 50.7878 5.44513C50.4788 5.3872 50.1891 5.35823 49.9187 5.35823C48.2772 5.35823 45.9887 6.36247 43.0532 8.37095C42.2228 8.931 41.46 9.55865 40.7647 10.2539C40.0695 10.9491 39.4225 11.6927 38.8238 12.4845C37.6651 14.0681 37.0857 15.4006 37.0857 16.4821C37.0857 17.3125 37.472 17.8147 38.2445 17.9885C38.5341 18.0657 38.8625 18.1043 39.2294 18.1043C39.9246 18.1043 40.6199 17.9305 41.3151 17.5829C42.0104 17.2353 42.6863 16.7911 43.3429 16.2504C43.845 15.8255 44.1347 15.6131 44.212 15.6131C44.2892 15.6131 44.3182 15.6806 44.2989 15.8158C44.183 16.2214 43.903 16.6076 43.4588 16.9746C43.0146 17.3415 42.4835 17.6795 41.8655 17.9885C41.2475 18.2781 40.6199 18.5099 39.9826 18.6837C39.3646 18.8382 38.8142 18.9155 38.3314 18.9155C37.5589 18.9155 36.8829 18.7223 36.3036 18.3361C35.7242 17.9305 35.4345 17.3415 35.4345 16.569C35.4345 15.391 36.1201 13.9425 37.4913 12.2237C38.8045 10.5629 40.4268 9.0855 42.358 7.79158C43.1498 7.25083 44.0768 6.73906 45.1389 6.25625C46.2011 5.75413 47.273 5.34857 48.3544 5.03958C49.4359 4.71127 50.4015 4.54711 51.2513 4.54711C52.777 4.54711 53.5398 5.04923 53.5398 6.05347C53.5398 7.27015 52.6225 9.36553 50.7878 12.3396C49.4939 14.3867 47.7847 16.8201 45.6604 19.6397C43.903 21.9764 43.0146 23.1448 42.9953 23.1448C43.0532 23.1448 43.9802 22.1503 45.7763 20.1611C46.8771 18.9251 47.9103 17.8243 48.8759 16.8587C49.8608 15.8738 50.7685 15.0144 51.5989 14.2805C52.0045 13.9136 52.4969 13.4597 53.0763 12.919C53.6557 12.3589 54.3316 11.712 55.1041 10.9781C55.78 10.3601 56.4366 9.80005 57.0739 9.29793C57.7306 8.79582 58.3292 8.54476 58.87 8.54476C59.43 8.54476 59.797 8.67994 59.9708 8.95031C58.1941 11.1519 56.5332 13.846 54.9882 17.0325C53.8874 19.3114 53.337 21.0398 53.337 22.2179C53.337 22.9131 53.5205 23.4152 53.8874 23.7242C54.2543 24.0332 54.7372 24.1877 55.3358 24.1877C55.9925 24.1877 56.678 24.0042 57.3926 23.6373C58.1265 23.2704 58.8507 22.7972 59.5652 22.2179C60.2798 21.6385 60.9461 21.0301 61.564 20.3928C63.785 18.1526 65.552 15.7289 66.8653 13.1218C67.8888 11.0747 68.4006 9.44278 68.4006 8.2261C68.4006 8.11023 68.3909 8.00401 68.3716 7.90745C68.3716 7.81089 68.362 7.72398 68.3427 7.64673C67.9371 7.64673 67.5026 7.4343 67.0391 7.00943C66.7494 6.77768 66.6046 6.53628 66.6046 6.28522C66.6046 6.05347 66.7011 5.86035 66.8942 5.70585C67.0874 5.55135 67.3095 5.4741 67.5605 5.4741C67.9274 5.4741 68.1978 5.63826 68.3716 5.96657C68.4489 6.12106 68.6034 6.31419 68.8351 6.54593C68.9896 6.70043 69.0572 6.81631 69.0379 6.89355C69.1538 7.06737 69.3469 7.15427 69.6173 7.15427C69.8876 7.15427 70.1387 7.0384 70.3704 6.80665C70.6215 6.5749 70.8919 6.45903 71.1816 6.45903C71.3361 6.45903 71.4133 6.51697 71.4133 6.63284C71.4133 6.84528 71.2298 7.04805 70.8629 7.24118C70.6698 7.37636 70.438 7.46327 70.1677 7.50189C70.0132 7.5212 69.8587 7.54052 69.7042 7.55983C69.5497 7.55983 69.3952 7.54052 69.2407 7.50189C69.4724 8.27438 69.5883 8.8441 69.5883 9.21103C69.5883 10.756 68.8544 12.7548 67.3867 15.2075C66.6528 16.4435 65.8127 17.6119 64.8664 18.7127C63.9201 19.8135 62.858 20.8467 61.6799 21.8123C59.3431 23.7821 57.2671 24.7671 55.4517 24.7671C53.4625 24.7671 52.468 23.8401 52.468 21.9861C52.468 21.1171 52.6514 20.1321 53.0184 19.0313C53.3853 17.9112 53.8198 16.8008 54.3219 15.7L56.4077 11.1519C55.5579 11.8085 54.8627 12.3493 54.3219 12.7741C53.8005 13.1797 53.3563 13.5273 52.9894 13.817C52.6418 14.1067 52.3038 14.406 51.9755 14.715C51.6665 15.0047 51.2899 15.362 50.8457 15.7869C50.3629 16.2697 49.716 16.9649 48.9048 17.8726C48.0937 18.761 47.1474 19.8714 46.0659 21.204L42.7056 25.3175C42.5125 25.5492 42.2904 25.7617 42.0393 25.9548C41.7883 26.1479 41.5372 26.2445 41.2861 26.2445ZM73.7819 23.1448C72.9515 23.1448 72.3818 22.9324 72.0728 22.5075C71.7638 22.0634 71.6093 21.4743 71.6093 20.7405C71.6093 19.9293 71.8604 18.9637 72.3625 17.8436C72.5556 17.3994 72.7584 17.0035 72.9708 16.6559C73.1832 16.289 73.4053 15.951 73.6371 15.642C73.5598 15.6613 73.4922 15.671 73.4343 15.671C73.3764 15.671 73.3184 15.671 73.2605 15.671C72.797 15.671 72.4108 15.3427 72.1018 14.6861L69.9581 17.467C68.8187 18.9541 68.1234 19.6976 67.8724 19.6976C67.7758 19.6976 67.7275 19.659 67.7275 19.5817C67.7275 19.4852 67.7758 19.3596 67.8724 19.2051C67.9303 19.0893 68.0462 18.9348 68.22 18.7416C68.9539 17.8919 69.6298 17.0518 70.2478 16.2214C70.8658 15.391 71.3776 14.5798 71.7831 13.788C72.2273 12.1079 72.7873 11.2678 73.4633 11.2678C73.9075 11.2678 74.1296 11.4706 74.1296 11.8761C74.1296 12.2431 73.8881 12.7259 73.4053 13.3245C72.9418 13.9232 72.7101 14.2322 72.7101 14.2515C72.7101 14.6571 73.0094 14.8599 73.6081 14.8599C73.9557 14.8599 74.342 14.7343 74.7669 14.4833L75.52 14.0198C75.5587 14.0005 75.6166 13.9908 75.6938 13.9908C75.9256 13.9908 76.1284 14.0874 76.3022 14.2805C76.476 14.4736 76.5339 14.6474 76.476 14.8019L74.4772 17.3222C73.2412 18.9058 72.6232 20.1804 72.6232 21.146C72.6232 22.0151 73.0481 22.4496 73.8978 22.4496C74.4772 22.4496 75.0952 22.2758 75.7518 21.9282C76.4277 21.5805 77.0747 21.1557 77.6927 20.6536C78.33 20.1321 78.8611 19.63 79.2859 19.1472L79.9812 18.3361C80.0198 18.2975 80.0681 18.2492 80.126 18.1912C80.184 18.1333 80.2322 18.1043 80.2709 18.1043C80.406 18.1043 80.4736 18.1719 80.4736 18.3071C80.4736 18.3457 80.4543 18.4133 80.4157 18.5099C80.3771 18.6065 80.3095 18.7127 80.2129 18.8285L79.2859 19.8714C78.8417 20.3735 78.2913 20.8853 77.6347 21.4067C76.9974 21.9089 76.3312 22.3241 75.6359 22.6524C74.96 22.9807 74.342 23.1448 73.7819 23.1448ZM85.6751 13.0349C85.3467 13.0349 85.0571 12.9286 84.806 12.7162C84.5743 12.5038 84.4584 12.2624 84.4584 11.992C84.4584 11.4513 84.8253 11.1809 85.5592 11.1809C85.8295 11.1809 86.0999 11.2774 86.3703 11.4706C86.6407 11.6444 86.7759 11.8665 86.7759 12.1368C86.7759 12.3686 86.6503 12.581 86.3993 12.7741C86.1482 12.948 85.9068 13.0349 85.6751 13.0349ZM80.3159 23.3187C79.891 23.3187 79.5434 23.1835 79.273 22.9131C78.9833 22.6234 78.8385 22.1213 78.8385 21.4067C78.8385 21.0012 78.9351 20.5377 79.1282 20.0163C79.302 19.4755 79.5241 18.9348 79.7945 18.394C80.0841 17.8533 80.3642 17.3705 80.6345 16.9456C81.716 15.1882 82.6044 14.2998 83.2996 14.2805C83.4735 14.2805 83.6859 14.3578 83.9369 14.5123C84.188 14.6474 84.3135 14.8019 84.3135 14.9757C84.3135 14.9757 83.5797 15.922 82.1119 17.8147C80.6635 19.6879 79.9393 21.0205 79.9393 21.8123C79.9393 22.4303 80.1807 22.7393 80.6635 22.7393C80.9725 22.7393 81.3684 22.6138 81.8512 22.3627C82.3533 22.0923 82.8748 21.7544 83.4155 21.3488C83.9563 20.9432 84.468 20.5087 84.9508 20.0452C85.453 19.5817 85.8585 19.1569 86.1675 18.7706C86.3606 18.5196 86.5248 18.3457 86.66 18.2492C86.8145 18.1526 86.911 18.1043 86.9497 18.1043C87.0269 18.1043 87.0655 18.1623 87.0655 18.2781C87.0655 18.3747 86.9497 18.5678 86.7179 18.8575C86.5055 19.1472 86.2061 19.4852 85.8199 19.8714C85.3564 20.3349 84.8446 20.837 84.2846 21.3778C83.7245 21.9185 83.1162 22.382 82.4596 22.7683C81.8029 23.1352 81.0884 23.3187 80.3159 23.3187ZM87.6039 23.1738C86.9859 23.1738 86.4935 23.029 86.1266 22.7393C85.7789 22.4303 85.6051 21.8895 85.6051 21.1171C85.6051 20.6729 85.7403 20.1128 86.0107 19.4369C86.2811 18.7416 86.619 17.9981 87.0246 17.2063C87.4301 16.4145 87.8357 15.6324 88.2412 14.8599C87.9902 14.9178 87.7681 14.9468 87.575 14.9468C86.9956 14.9468 86.7059 14.7247 86.7059 14.2805C86.7059 14.0681 86.7832 13.9039 86.9377 13.788C87.1115 13.6722 87.266 13.6046 87.4012 13.5853C87.4012 13.5853 87.4205 13.5853 87.4591 13.5853C87.517 13.5853 87.5846 13.5756 87.6619 13.5563H89.342C89.6897 13.1121 90.0469 12.639 90.4139 12.1368C90.9353 11.4802 91.3505 11.094 91.6595 10.9781H91.7464C91.8816 10.9781 92.0747 11.0457 92.3258 11.1809C92.6348 11.3547 92.7893 11.5285 92.7893 11.7023C92.7893 11.9534 92.3258 12.6003 91.3988 13.6432C91.5726 13.6625 91.8237 13.6722 92.152 13.6722C92.4803 13.6722 92.8859 13.6722 93.3687 13.6722C93.6004 13.6722 93.9287 13.6722 94.3536 13.6722C94.7978 13.6722 95.2516 13.6722 95.7151 13.6722C96.1979 13.6529 96.6131 13.6432 96.9607 13.6432C97.3084 13.6239 97.5015 13.6142 97.5401 13.6142C97.598 13.6335 97.627 13.6625 97.627 13.7011C97.627 13.8749 96.4876 14.1067 94.2087 14.3964C92.9148 14.5702 91.9202 14.7054 91.225 14.8019C90.5491 14.8985 90.1821 14.9564 90.1242 14.9757C89.8538 15.2075 89.5255 15.6034 89.1393 16.1635C88.753 16.7235 88.3668 17.3512 87.9805 18.0464C87.5943 18.7416 87.266 19.4079 86.9956 20.0452C86.7445 20.6632 86.619 21.146 86.619 21.4936C86.619 21.8026 86.7349 22.0634 86.9666 22.2758C87.1984 22.4689 87.575 22.5655 88.0964 22.5655C88.444 22.5655 88.8592 22.4882 89.342 22.3337C89.8249 22.1792 90.2787 22.0054 90.7036 21.8123C91.1477 21.5999 91.4664 21.4357 91.6595 21.3198C92.1616 21.0108 92.712 20.6053 93.3107 20.1032C93.9287 19.5817 94.5371 18.9927 95.1357 18.3361C95.4061 18.0657 95.5896 17.9305 95.6861 17.9305C95.7441 17.9305 95.773 17.9692 95.773 18.0464C95.773 18.2009 95.6282 18.452 95.3385 18.7996C94.875 19.3596 94.3536 19.9004 93.7742 20.4218C93.2142 20.9239 92.5865 21.3874 91.8913 21.8123C91.0995 22.2951 90.3366 22.6427 89.6028 22.8552C88.8882 23.0676 88.2219 23.1738 87.6039 23.1738ZM95.8853 23.3766C95.2673 23.3766 94.7072 23.1835 94.2051 22.7972C93.703 22.3917 93.4519 21.8606 93.4519 21.204C93.4519 19.8328 94.292 18.2685 95.9722 16.5111C97.691 14.7343 99.2263 13.846 100.578 13.846C101.022 13.846 101.38 13.9715 101.65 14.2226C101.94 14.4543 102.085 14.744 102.085 15.0916C102.085 16.1731 101.225 17.2353 99.5063 18.2781C97.9807 19.2051 96.6964 19.6686 95.6535 19.6686C95.499 19.6686 95.3639 19.6493 95.248 19.6107C94.9583 20.1321 94.8135 20.6825 94.8135 21.2619C94.8135 22.2661 95.2866 22.7683 96.2329 22.7683C97.1985 22.7683 98.4442 22.1213 99.9698 20.8274C101.148 19.8811 102.152 18.8768 102.983 17.8147C103.156 17.5829 103.311 17.467 103.446 17.467C103.562 17.467 103.62 17.525 103.62 17.6408C103.62 17.7567 103.543 17.9209 103.388 18.1333C102.847 18.8479 102.268 19.5045 101.65 20.1032C101.032 20.7018 100.366 21.2522 99.6512 21.7544C98.1641 22.8358 96.9088 23.3766 95.8853 23.3766ZM96.0591 19.0313C96.793 19.0313 97.7489 18.6644 98.927 17.9305C99.3132 17.6602 99.6898 17.3608 100.057 17.0325C100.443 16.6849 100.752 16.3373 100.984 15.9896C101.235 15.642 101.36 15.333 101.36 15.0627C101.36 14.8116 101.158 14.6861 100.752 14.6861C100.173 14.6861 99.3615 15.1206 98.3186 15.9896C97.8165 16.4145 97.3337 16.878 96.8702 17.3801C96.4067 17.8822 96.0108 18.4133 95.6825 18.9734C95.7984 19.012 95.9239 19.0313 96.0591 19.0313ZM104.05 23.0579C103.49 23.0579 102.968 22.9228 102.485 22.6524C102.003 22.3627 101.761 21.8895 101.761 21.2329C101.761 20.3252 102.08 19.2438 102.717 17.9885C103.374 16.7332 104.117 15.4296 104.948 14.0777C107.207 10.4084 108.81 8.57372 109.756 8.57372C109.95 8.57372 110.143 8.65097 110.336 8.80547C110.548 8.94066 110.664 9.09516 110.683 9.26897L108.656 11.992C107.864 13.0542 107.149 14.0391 106.512 14.9468C105.875 15.8351 105.324 16.6366 104.861 17.3512C104.629 17.7181 104.368 18.1333 104.079 18.5968C103.789 19.0603 103.528 19.5431 103.296 20.0452C103.084 20.528 102.978 21.0205 102.978 21.5226C102.978 21.7544 103.045 21.9668 103.181 22.1599C103.316 22.3337 103.557 22.4206 103.905 22.4206C104.523 22.4206 105.334 22.0923 106.338 21.4357C107.342 20.7598 108.337 19.8328 109.322 18.6547C109.418 18.5389 109.525 18.4326 109.641 18.3361C109.756 18.2395 109.853 18.1912 109.93 18.1912C110.027 18.1912 110.075 18.2492 110.075 18.3651C110.075 18.423 110.007 18.5389 109.872 18.7127C109.756 18.8672 109.66 18.9927 109.583 19.0893L108.887 19.8714C108.501 20.2963 108.038 20.7598 107.497 21.2619C106.975 21.764 106.415 22.1889 105.817 22.5365C105.237 22.8841 104.648 23.0579 104.05 23.0579ZM109.558 28.9385C108.94 28.9385 108.4 28.6778 107.936 28.1564C107.473 27.6156 107.251 27.017 107.27 26.3603C107.502 26.65 107.811 26.988 108.197 27.3742C108.699 27.857 109.191 28.0984 109.674 28.0984C110.775 28.0984 111.963 27.2197 113.237 25.4623C113.682 24.8443 114.135 24.1201 114.599 23.2897C115.082 22.4786 115.536 21.5709 115.96 20.5667L117.061 17.9016L112.803 21.2329C111.49 22.2565 110.437 22.7683 109.645 22.7683C109.22 22.7683 108.882 22.6138 108.631 22.3048C108.38 21.9958 108.255 21.6771 108.255 21.3488C108.255 20.5184 108.969 19.1569 110.398 17.2643C111.828 15.3523 112.899 14.3964 113.614 14.3964C114.213 14.3964 114.512 14.6185 114.512 15.0627C114.512 15.2365 113.653 16.2407 111.934 18.0754C110.234 19.8907 109.385 21.1171 109.385 21.7544C109.385 22.0054 109.549 22.1309 109.877 22.1309C110.495 22.1309 111.837 21.3295 113.904 19.7266C114.753 19.0506 115.507 18.4326 116.163 17.8726C116.82 17.3125 117.37 16.8104 117.814 16.3662C117.969 16.1731 118.123 15.9896 118.278 15.8158C118.432 15.6227 118.577 15.4296 118.712 15.2365C119.079 14.8116 119.446 14.5992 119.813 14.5992C120.335 14.5992 120.595 14.8116 120.595 15.2365C120.595 15.3137 120.19 15.951 119.379 17.1484C118.954 17.805 118.616 18.3168 118.365 18.6837C118.114 19.0313 117.969 19.2534 117.93 19.35C117.332 20.5087 116.414 22.1985 115.178 24.4195C113.305 27.4322 111.432 28.9385 109.558 28.9385Z" fill="black"/>
<path d="M75.6111 32.0278H113.833" stroke="black" stroke-width="1.19444" stroke-linecap="round" stroke-dasharray="4.78 4.78"/>
</g>
<defs>
<clipPath id="clip0_10_34">
<rect width="156" height="40" fill="white"/>
</clipPath>
</defs>
</svg>
