<svg xmlns="http://www.w3.org/2000/svg" viewBox="0 0 64 64" id="BlogComment">
  <linearGradient id="a" x1="21.427" x2="41.034" y1="25.386" y2="59.347" gradientUnits="userSpaceOnUse">
    <stop offset="0" stop-color="#ffffff" stop-opacity=".25" class="stopColorffffff svgShape"></stop>
    <stop offset="1" stop-color="#ff2323" stop-opacity=".8" class="stopColorff9d23 svgShape"></stop>
  </linearGradient>
  <path fill="url(#a)" d="M18 27.8c1.5-1.2 3.1-2.4 5.1-3.1 2.3-.8 5-.7 7.5-.1 2.4.6 4.7 1.6 6.9 2.5l18.9 8.4c1.4.6 2.8 1.3 3.8 2.2 1.8 1.8 1.8 4.4.5 6.5-1.3 2.1-3.5 3.7-5.9 5-2.4 1.4-4.9 2.6-7 4.2-2 1.5-3.5 3.3-5.4 4.8-5.9 4.6-15.7 5.8-23.1 2.9-5.4-2.1-9.3-6-13-9.7C3.6 48.7.8 45.7.8 42.3c0-3.3 2.8-6.2 6.7-7.4 4.1-1.1 7.3-4.6 10.5-7.1z"></path>
  <path fill="none" stroke="#c2c7c7" stroke-linecap="round" stroke-linejoin="round" stroke-miterlimit="10" stroke-width="1.345" d="m.7 22.8 1.9-1.9 1.7 1.7" class="colorStrokeff9d23 svgStroke"></path>
  <path fill="none" stroke="#475756" stroke-linecap="round" stroke-linejoin="round" stroke-miterlimit="10" stroke-width="1.229" d="m60.8 41.3 1.7-1.7 1.5 1.5" class="colorStroke9495fa svgStroke"></path>
  <path fill="none" stroke="#475756" stroke-linecap="round" stroke-linejoin="round" stroke-miterlimit="10" stroke-width="1.345" d="M2.5 32 0 34.5" class="colorStroke9495fa svgStroke"></path>
  <path fill="none" stroke="#fd4f4f" stroke-linecap="round" stroke-linejoin="round" stroke-miterlimit="10" stroke-width="1.229" d="M60.7 23.7 58 26.3" class="colorStrokeff4b4d svgStroke"></path>
  <path fill="none" stroke="#475756" stroke-linecap="round" stroke-linejoin="round" stroke-miterlimit="10" stroke-width="1.229" d="m27.3 58.1-2.7 2.6" class="colorStroke0000db svgStroke"></path>
  <path fill="none" stroke="#fd4f4f" stroke-linecap="round" stroke-linejoin="round" stroke-miterlimit="10" stroke-width="1.229" d="m51.9 58.1-2.7 2.6" class="colorStrokeff4b4d svgStroke"></path>
  <g stroke-linecap="round" stroke-linejoin="round" stroke-miterlimit="10" stroke-width="1.295" fill="#001514" class="color000000 svgShape">
    <path fill="#a8afaf" stroke="#475756" d="M35.7 15H15.1c-3.5 0-6.3 2.9-6.3 6.4v20c0 3.5 2.8 6.4 6.3 6.4h.1l.2 5c.1 1.2 1.5 1.9 2.5 1.2l8.7-6.2h22.7c3.5 0 6.3-2.9 6.3-6.4v-20c0-3.5-2.8-6.4-6.3-6.4H35.7z" class="color9495fa svgShape colorStroke0000db svgStroke"></path>
    <path fill="none" stroke="#edefef" d="M19.6 31.3h25.1M19.6 38.5h25.1M19.6 24.2h25.1" class="colorStrokeffffff svgStroke"></path>
    <path fill="#243635" stroke="#475756" d="M49.5 4.1 48 6h0l-3.4-2.6 1.5-1.9c.3-.4 1-.5 1.4-.2l1.8 1.3c.4.4.5 1 .2 1.5z" class="colorff9d23 svgShape colorStroke0000db svgStroke"></path>
    <path fill="#e0e3e3" stroke="#475756" d="m36.6 21.1-4.5 2.3 1.1-4.9z" class="colorfed3be svgShape colorStroke0000db svgStroke"></path>
    <path fill="#edefef" stroke="#475756" d="m48 6-8.7 11.5-1 1.3-1.7 2.3-3.4-2.6 1.7-2.3 1-1.3 8.7-11.4z" class="colorf86c66 svgShape colorStroke0000db svgStroke"></path>
  </g>
</svg>
